<svg viewBox="0 0 400 300" xmlns="http://www.w3.org/2000/svg">
  <!-- Background -->
  <rect width="400" height="300" fill="#f8fafc"/>
  
  <!-- Grid background -->
  <defs>
    <pattern id="grid" width="20" height="20" patternUnits="userSpaceOnUse">
      <path d="M 20 0 L 0 0 0 20" fill="none" stroke="#e2e8f0" stroke-width="1"/>
    </pattern>
  </defs>
  <rect width="400" height="300" fill="url(#grid)"/>
  
  <!-- Computer/CAD Screen -->
  <rect x="50" y="60" width="180" height="120" rx="8" fill="#1e293b" stroke="#334155" stroke-width="2"/>
  <rect x="60" y="70" width="160" height="90" fill="#0f172a"/>
  
  <!-- 3D Model wireframe -->
  <g stroke="#3b82f6" stroke-width="2" fill="none">
    <!-- Building structure -->
    <path d="M 80 140 L 80 90 L 120 80 L 160 90 L 160 140 L 80 140"/>
    <path d="M 80 90 L 120 80"/>
    <path d="M 120 80 L 120 130"/>
    <path d="M 160 90 L 120 80"/>
    <path d="M 160 90 L 160 140"/>
    <path d="M 120 130 L 160 140"/>
    
    <!-- Grid lines -->
    <line x1="90" y1="140" x2="90" y2="95"/>
    <line x1="100" y1="140" x2="100" y2="92"/>
    <line x1="110" y1="140" x2="110" y2="88"/>
    <line x1="130" y1="140" x2="130" y2="88"/>
    <line x1="140" y1="140" x2="140" y2="92"/>
    <line x1="150" y1="140" x2="150" y2="95"/>
  </g>
  
  <!-- Blueprints/Documents -->
  <rect x="260" y="80" width="100" height="70" rx="4" fill="#ffffff" stroke="#cbd5e1" stroke-width="1"/>
  <rect x="270" y="90" width="80" height="4" fill="#64748b"/>
  <rect x="270" y="100" width="60" height="3" fill="#94a3b8"/>
  <rect x="270" y="110" width="70" height="3" fill="#94a3b8"/>
  <rect x="270" y="120" width="50" height="3" fill="#94a3b8"/>
  <rect x="270" y="130" width="65" height="3" fill="#94a3b8"/>
  
  <!-- Technical drawing elements -->
  <circle cx="320" cy="120" r="8" fill="none" stroke="#3b82f6" stroke-width="1.5"/>
  <line x1="312" y1="120" x2="328" y2="120" stroke="#3b82f6" stroke-width="1"/>
  <line x1="320" y1="112" x2="320" y2="128" stroke="#3b82f6" stroke-width="1"/>
  
  <!-- Ruler/Scale -->
  <rect x="260" y="170" width="100" height="8" fill="#fbbf24"/>
  <g stroke="#92400e" stroke-width="0.5">
    <line x1="270" y1="170" x2="270" y2="178"/>
    <line x1="280" y1="170" x2="280" y2="178"/>
    <line x1="290" y1="170" x2="290" y2="178"/>
    <line x1="300" y1="170" x2="300" y2="178"/>
    <line x1="310" y1="170" x2="310" y2="178"/>
    <line x1="320" y1="170" x2="320" y2="178"/>
    <line x1="330" y1="170" x2="330" y2="178"/>
    <line x1="340" y1="170" x2="340" y2="178"/>
    <line x1="350" y1="170" x2="350" y2="178"/>
  </g>
  
  <!-- Compass/Protractor -->
  <circle cx="100" cy="220" r="25" fill="none" stroke="#64748b" stroke-width="2"/>
  <line x1="100" y1="195" x2="100" y2="245" stroke="#64748b" stroke-width="1"/>
  <line x1="75" y1="220" x2="125" y2="220" stroke="#64748b" stroke-width="1"/>
  <line x1="100" y1="220" x2="118" y2="208" stroke="#ef4444" stroke-width="2"/>
  
  <!-- Standards symbols -->
  <rect x="280" y="210" width="60" height="30" rx="4" fill="#dbeafe" stroke="#3b82f6" stroke-width="1"/>
  <text x="310" y="225" text-anchor="middle" font-family="Arial, sans-serif" font-size="10" font-weight="bold" fill="#1e40af">IS</text>
  <text x="295" y="235" text-anchor="middle" font-family="Arial, sans-serif" font-size="8" fill="#1e40af">BS</text>
  <text x="325" y="235" text-anchor="middle" font-family="Arial, sans-serif" font-size="8" fill="#1e40af">ASTM</text>
  
  <!-- Title -->
  <text x="200" y="30" text-anchor="middle" font-family="Arial, sans-serif" font-size="18" font-weight="bold" fill="#1e293b">Design Expertise</text>
  <text x="200" y="45" text-anchor="middle" font-family="Arial, sans-serif" font-size="12" fill="#64748b">Concept-to-detail engineering</text>
</svg>