<svg viewBox="0 0 400 300" xmlns="http://www.w3.org/2000/svg">
  <!-- Background -->
  <rect width="400" height="300" fill="#f8fafc"/>
  
  <!-- Grid background -->
  <defs>
    <pattern id="grid" width="20" height="20" patternUnits="userSpaceOnUse">
      <path d="M 20 0 L 0 0 0 20" fill="none" stroke="#e2e8f0" stroke-width="1"/>
    </pattern>
  </defs>
  <rect width="400" height="300" fill="url(#grid)"/>
  
  <!-- CNC Machine -->
  <rect x="50" y="80" width="120" height="80" rx="8" fill="#374151" stroke="#4b5563" stroke-width="2"/>
  <rect x="60" y="90" width="100" height="20" fill="#6b7280"/>
  <rect x="70" y="120" width="80" height="30" fill="#1f2937"/>
  
  <!-- CNC cutting head -->
  <circle cx="110" cy="135" r="8" fill="#ef4444"/>
  <circle cx="110" cy="135" r="4" fill="#fca5a5"/>
  
  <!-- Sparks from cutting -->
  <g fill="#fbbf24">
    <circle cx="118" cy="130" r="1"/>
    <circle cx="122" cy="135" r="1.5"/>
    <circle cx="115" cy="142" r="1"/>
    <circle cx="125" cy="140" r="1"/>
    <circle cx="120" cy="128" r="0.8"/>
  </g>
  
  <!-- Material being cut -->
  <rect x="90" y="150" width="40" height="6" fill="#64748b"/>
  <path d="M 110 150 L 110 156" stroke="#ef4444" stroke-width="2"/>
  
  <!-- Welding Station -->
  <rect x="200" y="100" width="80" height="60" rx="4" fill="#1e293b" stroke="#334155" stroke-width="2"/>
  
  <!-- Welding arc -->
  <circle cx="240" cy="130" r="12" fill="#3b82f6" opacity="0.7"/>
  <circle cx="240" cy="130" r="8" fill="#60a5fa" opacity="0.8"/>
  <circle cx="240" cy="130" r="4" fill="#ffffff"/>
  
  <!-- Welding sparks -->
  <g fill="#fbbf24">
    <circle cx="235" cy="125" r="1"/>
    <circle cx="245" cy="128" r="1.2"/>
    <circle cx="238" cy="135" r="0.8"/>
    <circle cx="248" cy="132" r="1"/>
    <circle cx="232" cy="133" r="1.1"/>
    <circle cx="250" cy="125" r="0.9"/>
  </g>
  
  <!-- Welded joint -->
  <rect x="220" y="145" width="40" height="4" fill="#64748b"/>
  <path d="M 220 147 L 260 147" stroke="#fbbf24" stroke-width="2" stroke-dasharray="2,1"/>
  
  <!-- Quality Control Tools -->
  <!-- Caliper -->
  <g stroke="#64748b" stroke-width="2" fill="none">
    <path d="M 320 90 L 320 110 M 340 90 L 340 110"/>
    <path d="M 315 95 L 325 95 M 335 95 L 345 95"/>
    <circle cx="330" cy="85" r="3" fill="#64748b"/>
  </g>
  
  <!-- Measuring gauge -->
  <rect x="310" y="120" width="40" height="15" rx="2" fill="#6b7280"/>
  <rect x="315" y="125" width="30" height="5" fill="#374151"/>
  <circle cx="345" cy="127" r="2" fill="#ef4444"/>
  
  <!-- Steel beams/products -->
  <rect x="60" y="200" width="100" height="12" fill="#64748b"/>
  <rect x="60" y="220" width="100" height="12" fill="#64748b"/>
  <rect x="60" y="240" width="100" height="12" fill="#64748b"/>
  
  <!-- Beam cross-section indicators -->
  <g stroke="#374151" stroke-width="1" fill="none">
    <line x1="70" y1="200" x2="70" y2="212"/>
    <line x1="80" y1="200" x2="80" y2="212"/>
    <line x1="90" y1="200" x2="90" y2="212"/>
    <line x1="100" y1="200" x2="100" y2="212"/>
  </g>
  
  <!-- Protective coating spray -->
  <rect x="250" y="180" width="60" height="40" rx="4" fill="#475569"/>
  <circle cx="280" cy="200" r="15" fill="#94a3b8" opacity="0.6"/>
  
  <!-- Spray particles -->
  <g fill="#94a3b8" opacity="0.8">
    <circle cx="275" cy="195" r="1"/>
    <circle cx="285" cy="198" r="0.8"/>
    <circle cx="278" cy="205" r="1.2"/>
    <circle cx="288" cy="202" r="0.9"/>
    <circle cx="272" cy="200" r="1.1"/>
  </g>
  
  <!-- Quality checkmark -->
  <circle cx="350" cy="180" r="15" fill="#10b981"/>
  <path d="M 345 180 L 348 183 L 355 176" stroke="#ffffff" stroke-width="2" fill="none"/>
  
  <!-- Title -->
  <text x="200" y="30" text-anchor="middle" font-family="Arial, sans-serif" font-size="18" font-weight="bold" fill="#1e293b">Fabrication Excellence</text>
  <text x="200" y="45" text-anchor="middle" font-family="Arial, sans-serif" font-size="12" fill="#64748b">Precision fabrication with robust QA</text>
</svg>