<svg viewBox="0 0 400 300" xmlns="http://www.w3.org/2000/svg">
  <!-- Background -->
  <rect width="400" height="300" fill="#f8fafc"/>
  
  <!-- Grid background -->
  <defs>
    <pattern id="grid" width="20" height="20" patternUnits="userSpaceOnUse">
      <path d="M 20 0 L 0 0 0 20" fill="none" stroke="#e2e8f0" stroke-width="1"/>
    </pattern>
  </defs>
  <rect width="400" height="300" fill="url(#grid)"/>
  
  <!-- Ground line -->
  <line x1="0" y1="250" x2="400" y2="250" stroke="#64748b" stroke-width="2"/>
  
  <!-- Crane -->
  <rect x="50" y="200" width="20" height="50" fill="#374151"/>
  <!-- Crane boom -->
  <line x1="60" y1="200" x2="150" y2="120" stroke="#4b5563" stroke-width="4"/>
  <!-- Crane mast -->
  <line x1="60" y1="200" x2="60" y2="80" stroke="#4b5563" stroke-width="6"/>
  <!-- Crane hook -->
  <circle cx="150" cy="120" r="3" fill="#ef4444"/>
  <!-- Crane cable -->
  <line x1="150" y1="120" x2="150" y2="160" stroke="#374151" stroke-width="1" stroke-dasharray="2,2"/>
  
  <!-- Steel beam being lifted -->
  <rect x="130" y="160" width="40" height="8" fill="#64748b"/>
  <rect x="135" y="155" width="30" height="3" fill="#94a3b8"/>
  
  <!-- Building structure being erected -->
  <g stroke="#64748b" stroke-width="3" fill="none">
    <!-- Vertical columns -->
    <line x1="200" y1="250" x2="200" y2="150"/>
    <line x1="250" y1="250" x2="250" y2="140"/>
    <line x1="300" y1="250" x2="300" y2="160"/>
    
    <!-- Horizontal beams -->
    <line x1="200" y1="200" x2="250" y2="190"/>
    <line x1="250" y1="180" x2="300" y2="190"/>
    
    <!-- Cross bracing -->
    <line x1="200" y1="220" x2="250" y2="200"/>
    <line x1="250" y1="220" x2="300" y2="200"/>
  </g>
  
  <!-- Workers with safety gear -->
  <!-- Worker 1 -->
  <circle cx="180" cy="235" r="8" fill="#fbbf24"/>
  <rect x="175" y="240" width="10" height="15" fill="#E84220"/>
  <rect x="177" y="245" width="6" height="8" fill="#dc2626"/>
  <!-- Safety helmet -->
  <circle cx="180" cy="235" r="9" fill="none" stroke="#ef4444" stroke-width="2"/>
  
  <!-- Worker 2 -->
  <circle cx="270" cy="235" r="8" fill="#fbbf24"/>
  <rect x="265" y="240" width="10" height="15" fill="#10b981"/>
  <rect x="267" y="245" width="6" height="8" fill="#059669"/>
  <!-- Safety helmet -->
  <circle cx="270" cy="235" r="9" fill="none" stroke="#ef4444" stroke-width="2"/>
  
  <!-- Safety equipment -->
  <!-- Safety barrier -->
  <rect x="320" y="230" width="60" height="20" fill="#fbbf24" opacity="0.7"/>
  <text x="350" y="242" text-anchor="middle" font-family="Arial, sans-serif" font-size="8" font-weight="bold" fill="#92400e">DANGER</text>
  
  <!-- Rigging equipment -->
  <circle cx="100" cy="180" r="6" fill="#64748b"/>
  <rect x="95" y="185" width="10" height="15" fill="#4b5563"/>
  
  <!-- Level/alignment tool -->
  <rect x="320" y="180" width="40" height="8" rx="4" fill="#10b981"/>
  <circle cx="340" cy="184" r="2" fill="#ffffff"/>
  <line x1="335" y1="184" x2="345" y2="184" stroke="#059669" stroke-width="1"/>
  
  <!-- Method statement clipboard -->
  <rect x="80" y="100" width="60" height="80" rx="4" fill="#ffffff" stroke="#cbd5e1" stroke-width="1"/>
  <rect x="90" y="110" width="40" height="4" fill="#64748b"/>
  <rect x="90" y="120" width="35" height="3" fill="#94a3b8"/>
  <rect x="90" y="130" width="30" height="3" fill="#94a3b8"/>
  <rect x="90" y="140" width="38" height="3" fill="#94a3b8"/>
  <rect x="90" y="150" width="25" height="3" fill="#94a3b8"/>
  
  <!-- Checkboxes -->
  <rect x="90" y="160" width="6" height="6" fill="none" stroke="#64748b" stroke-width="1"/>
  <path d="M 92 163 L 94 165 L 96 161" stroke="#10b981" stroke-width="1.5" fill="none"/>
  <rect x="90" y="170" width="6" height="6" fill="none" stroke="#64748b" stroke-width="1"/>
  <path d="M 92 173 L 94 175 L 96 171" stroke="#10b981" stroke-width="1.5" fill="none"/>
  
  <!-- Surveying equipment -->
  <rect x="350" y="120" width="8" height="30" fill="#64748b"/>
  <circle cx="354" cy="115" r="5" fill="#fbbf24"/>
  <line x1="354" y1="110" x2="354" y2="120" stroke="#92400e" stroke-width="1"/>
  
  <!-- Title -->
  <text x="200" y="30" text-anchor="middle" font-family="Arial, sans-serif" font-size="18" font-weight="bold" fill="#1e293b">Installation Mastery</text>
  <text x="200" y="45" text-anchor="middle" font-family="Arial, sans-serif" font-size="12" fill="#64748b">Safe, efficient erection and integration</text>
</svg>