<svg viewBox="0 0 400 300" xmlns="http://www.w3.org/2000/svg">
  <!-- Background -->
  <rect width="400" height="300" fill="#f8fafc"/>
  
  <!-- Grid background -->
  <defs>
    <pattern id="grid" width="20" height="20" patternUnits="userSpaceOnUse">
      <path d="M 20 0 L 0 0 0 20" fill="none" stroke="#e2e8f0" stroke-width="1"/>
    </pattern>
  </defs>
  <rect width="400" height="300" fill="url(#grid)"/>
  
  <!-- Gantt Chart / Timeline -->
  <rect x="50" y="80" width="200" height="120" rx="8" fill="#ffffff" stroke="#cbd5e1" stroke-width="2"/>
  
  <!-- Chart header -->
  <rect x="50" y="80" width="200" height="25" fill="#f1f5f9" stroke="#cbd5e1" stroke-width="1"/>
  <text x="150" y="95" text-anchor="middle" font-family="Arial, sans-serif" font-size="12" font-weight="bold" fill="#1e293b">Project Timeline</text>
  
  <!-- Timeline bars -->
  <rect x="60" y="115" width="80" height="8" fill="#3b82f6"/>
  <rect x="60" y="130" width="120" height="8" fill="#10b981"/>
  <rect x="60" y="145" width="60" height="8" fill="#f59e0b"/>
  <rect x="60" y="160" width="100" height="8" fill="#ef4444"/>
  <rect x="60" y="175" width="40" height="8" fill="#8b5cf6"/>
  
  <!-- Progress indicators -->
  <circle cx="140" cy="119" r="3" fill="#1e40af"/>
  <circle cx="180" cy="134" r="3" fill="#059669"/>
  <circle cx="120" cy="149" r="3" fill="#d97706"/>
  
  <!-- Task labels -->
  <text x="65" y="125" font-family="Arial, sans-serif" font-size="8" fill="#374151">Design</text>
  <text x="65" y="140" font-family="Arial, sans-serif" font-size="8" fill="#374151">Fabrication</text>
  <text x="65" y="155" font-family="Arial, sans-serif" font-size="8" fill="#374151">QA/QC</text>
  <text x="65" y="170" font-family="Arial, sans-serif" font-size="8" fill="#374151">Installation</text>
  <text x="65" y="185" font-family="Arial, sans-serif" font-size="8" fill="#374151">Handover</text>
  
  <!-- Calendar -->
  <rect x="280" y="80" width="100" height="80" rx="4" fill="#ffffff" stroke="#cbd5e1" stroke-width="1"/>
  <rect x="280" y="80" width="100" height="20" fill="#3b82f6"/>
  <text x="330" y="93" text-anchor="middle" font-family="Arial, sans-serif" font-size="10" font-weight="bold" fill="#ffffff">December 2024</text>
  
  <!-- Calendar grid -->
  <g stroke="#e2e8f0" stroke-width="0.5">
    <line x1="295" y1="100" x2="295" y2="160"/>
    <line x1="310" y1="100" x2="310" y2="160"/>
    <line x1="325" y1="100" x2="325" y2="160"/>
    <line x1="340" y1="100" x2="340" y2="160"/>
    <line x1="355" y1="100" x2="355" y2="160"/>
    <line x1="370" y1="100" x2="370" y2="160"/>
    
    <line x1="280" y1="115" x2="380" y2="115"/>
    <line x1="280" y1="130" x2="380" y2="130"/>
    <line x1="280" y1="145" x2="380" y2="145"/>
  </g>
  
  <!-- Calendar dates -->
  <text x="287" y="110" font-family="Arial, sans-serif" font-size="8" fill="#64748b">1</text>
  <text x="302" y="110" font-family="Arial, sans-serif" font-size="8" fill="#64748b">2</text>
  <text x="317" y="110" font-family="Arial, sans-serif" font-size="8" fill="#64748b">3</text>
  <text x="332" y="110" font-family="Arial, sans-serif" font-size="8" fill="#64748b">4</text>
  <text x="347" y="110" font-family="Arial, sans-serif" font-size="8" fill="#64748b">5</text>
  
  <!-- Highlighted dates -->
  <circle cx="302" cy="125" r="6" fill="#ef4444" opacity="0.7"/>
  <circle cx="347" cy="140" r="6" fill="#10b981" opacity="0.7"/>
  
  <!-- Cost Control Chart -->
  <rect x="50" y="220" width="120" height="60" rx="4" fill="#ffffff" stroke="#cbd5e1" stroke-width="1"/>
  <text x="110" y="235" text-anchor="middle" font-family="Arial, sans-serif" font-size="10" font-weight="bold" fill="#1e293b">Budget vs Actual</text>
  
  <!-- Chart bars -->
  <rect x="60" y="250" width="15" height="20" fill="#3b82f6"/>
  <rect x="80" y="245" width="15" height="25" fill="#10b981"/>
  <rect x="100" y="255" width="15" height="15" fill="#f59e0b"/>
  <rect x="120" y="240" width="15" height="30" fill="#ef4444"/>
  <rect x="140" y="248" width="15" height="22" fill="#8b5cf6"/>
  
  <!-- Documentation -->
  <rect x="200" y="220" width="80" height="60" rx="4" fill="#ffffff" stroke="#cbd5e1" stroke-width="1"/>
  <rect x="210" y="230" width="60" height="4" fill="#64748b"/>
  <rect x="210" y="240" width="50" height="3" fill="#94a3b8"/>
  <rect x="210" y="250" width="55" height="3" fill="#94a3b8"/>
  <rect x="210" y="260" width="45" height="3" fill="#94a3b8"/>
  <rect x="210" y="270" width="50" height="3" fill="#94a3b8"/>
  
  <!-- Signature line -->
  <line x1="210" y1="275" x2="270" y2="275" stroke="#64748b" stroke-width="1"/>
  <text x="240" y="285" text-anchor="middle" font-family="Arial, sans-serif" font-size="6" fill="#64748b">Approved</text>
  
  <!-- Stakeholder coordination -->
  <g transform="translate(300, 200)">
    <!-- People icons -->
    <circle cx="20" cy="20" r="8" fill="#fbbf24"/>
    <rect x="15" y="25" width="10" height="12" fill="#3b82f6"/>
    
    <circle cx="50" cy="20" r="8" fill="#fbbf24"/>
    <rect x="45" y="25" width="10" height="12" fill="#10b981"/>
    
    <circle cx="35" cy="45" r="8" fill="#fbbf24"/>
    <rect x="30" y="50" width="10" height="12" fill="#ef4444"/>
    
    <!-- Connection lines -->
    <line x1="28" y1="25" x2="42" y2="25" stroke="#64748b" stroke-width="1"/>
    <line x1="35" y1="32" x2="35" y2="37" stroke="#64748b" stroke-width="1"/>
    <line x1="20" y1="28" x2="30" y2="42" stroke="#64748b" stroke-width="1"/>
    <line x1="50" y1="28" x2="40" y2="42" stroke="#64748b" stroke-width="1"/>
  </g>
  
  <!-- Quality audit checkmark -->
  <circle cx="350" cy="180" r="12" fill="#10b981"/>
  <path d="M 345 180 L 348 183 L 355 176" stroke="#ffffff" stroke-width="2" fill="none"/>
  
  <!-- Title -->
  <text x="200" y="30" text-anchor="middle" font-family="Arial, sans-serif" font-size="18" font-weight="bold" fill="#1e293b">Project Management</text>
  <text x="200" y="45" text-anchor="middle" font-family="Arial, sans-serif" font-size="12" fill="#64748b">End-to-end planning and coordination</text>
</svg>